<svg id="Capa_1" enable-background="new 0 0 512 512" height="512" viewBox="0 0 512 512" width="512" xmlns="http://www.w3.org/2000/svg"><g><path d="m159.958 41.622h30v50.25h-30z" fill="#ffb242" transform="matrix(.919 -.394 .394 .919 -12.149 74.259)"/><path d="m322.041 420.128h30v50.25h-30z" fill="#ff7d39" transform="matrix(.919 -.394 .394 .919 -148.058 168.62)"/><path d="m420.128 159.958h50.25v30h-50.25z" fill="#ff7d39" transform="matrix(.919 -.394 .394 .919 -32.923 189.385)"/><path d="m41.622 322.042h50.25v30h-50.25z" fill="#ffb242" transform="matrix(.919 -.394 .394 .919 -127.278 53.481)"/><path d="m49.873 154.358h30v50.25h-30z" fill="#ffb242" transform="matrix(.372 -.928 .928 .372 -125.864 173.001)"/><path d="m432.127 307.392h30v50.25h-30z" fill="#ff7d39" transform="matrix(.372 -.928 .928 .372 -27.753 624.029)"/><path d="m307.392 49.872h50.25v30.001h-50.25z" fill="#ff7d39" transform="matrix(.372 -.928 .928 .372 148.705 349.458)"/><path d="m154.358 432.127h50.25v30.001h-50.25z" fill="#ffb242" transform="matrix(.372 -.928 .928 .372 -302.323 447.569)"/><path d="m86.586 63.96h30v75.25h-30z" fill="#ffb242" transform="matrix(.707 -.707 .707 .707 -42.078 101.585)"/><path d="m395.415 372.789h30v75.25h-30z" fill="#ff7d39" transform="matrix(.707 -.707 .707 .707 -169.999 410.415)"/><path d="m372.789 86.586h75.25v30h-75.25z" fill="#ff7d39" transform="matrix(.707 -.707 .707 .707 48.376 319.961)"/><path d="m63.96 395.415h75.25v30h-75.25z" fill="#ffb242" transform="matrix(.707 -.707 .707 .707 -260.453 192.039)"/><path d="m241 0h30v75.25h-30z" fill="#ffb242"/><path d="m256 0h15v75.25h-15z" fill="#ff7d39"/><path d="m241 436.75h30v75.25h-30z" fill="#ffb242"/><path d="m256 436.75h15v75.25h-15z" fill="#ff7d39"/><path d="m436.75 241h75.25v30h-75.25z" fill="#ff7d39"/><path d="m0 241h75.25v30h-75.25z" fill="#ffb242"/><circle cx="256" cy="256" fill="#ffd930" r="191.13"/><path d="m447.13 256c0 105.56-85.57 191.13-191.13 191.13v-382.26c105.56 0 191.13 85.57 191.13 191.13z" fill="#ffb242"/><circle cx="256" cy="256" fill="#fff560" r="127.42"/><path d="m383.42 256c0 70.37-57.05 127.42-127.42 127.42v-254.84c70.37 0 127.42 57.05 127.42 127.42z" fill="#ffce00"/></g></svg>